<?xml version="1.0" standalone="no"?>
<!DOCTYPE svg PUBLIC "-//W3C//DTD SVG 20010904//EN"
 "http://www.w3.org/TR/2001/REC-SVG-20010904/DTD/svg10.dtd">
<svg version="1.0" xmlns="http://www.w3.org/2000/svg"
 width="500.000000pt" height="500.000000pt" viewBox="0 0 500.000000 500.000000"
 preserveAspectRatio="xMidYMid meet">

<g transform="translate(0.000000,500.000000) scale(0.100000,-0.100000)"
fill="#000000" stroke="none">
<path d="M1030 2455 l0 -175 105 0 105 0 0 30 c0 29 -1 29 -62 32 l-63 3 -3
143 -3 142 -39 0 -40 0 0 -175z"/>
<path d="M1280 2509 c0 -137 13 -179 64 -210 43 -26 128 -25 171 1 53 33 65
71 65 209 l0 121 -40 0 -40 0 0 -119 c0 -138 -11 -164 -70 -164 -59 0 -70 26
-70 164 l0 119 -40 0 -40 0 0 -121z"/>
<path d="M1665 2545 l55 -85 -48 -78 c-27 -42 -52 -83 -56 -89 -5 -10 4 -13
34 -13 39 0 42 2 82 65 22 36 42 64 43 63 2 -2 19 -31 39 -65 37 -63 37 -63
82 -63 l46 0 -28 48 c-15 26 -40 67 -55 91 l-27 45 27 40 c16 23 40 60 55 84
l26 42 -44 0 c-44 0 -45 -1 -78 -60 -18 -33 -35 -60 -38 -60 -3 0 -21 27 -39
60 l-35 60 -48 0 -48 0 55 -85z"/>
<path d="M2147 2610 c-31 -24 -42 -66 -27 -104 9 -24 7 -31 -20 -58 -42 -41
-42 -97 -1 -139 25 -24 37 -29 81 -29 28 0 64 7 79 15 26 13 30 13 41 0 8 -9
30 -15 58 -15 l46 0 -34 35 -33 34 16 52 c23 71 22 79 -13 79 -25 0 -30 -4
-36 -35 -3 -19 -10 -35 -14 -35 -4 0 -31 25 -59 55 -55 58 -63 88 -29 109 13
8 22 6 40 -10 26 -22 68 -21 68 2 0 8 -11 26 -25 39 -31 32 -100 35 -138 5z
m61 -219 c18 -22 32 -42 32 -44 0 -3 -11 -8 -25 -11 -49 -12 -88 31 -65 74 15
28 22 26 58 -19z"/>
<path d="M2588 2614 c-35 -19 -48 -43 -48 -92 0 -47 25 -73 95 -99 52 -19 67
-42 45 -68 -16 -20 -44 -19 -87 2 -35 16 -36 16 -53 -8 -22 -28 -18 -37 26
-55 84 -35 174 -5 195 64 20 68 -7 100 -122 147 -28 12 -32 43 -7 58 12 8 28
7 58 -3 39 -13 43 -13 56 5 20 27 18 33 -16 50 -37 19 -107 19 -142 -1z"/>
<path d="M2810 2455 l0 -175 40 0 39 0 3 58 3 57 55 5 c70 7 98 23 116 65 18
44 18 59 -2 100 -21 46 -73 65 -174 65 l-80 0 0 -175z m170 95 c24 -24 25 -38
4 -68 -11 -16 -25 -22 -55 -22 l-39 0 0 48 c0 27 3 52 7 55 14 14 64 6 83 -13z"/>
<path d="M3120 2455 l0 -175 110 0 110 0 0 30 0 30 -70 0 -70 0 0 45 0 45 55
0 c54 0 55 0 55 30 0 30 -1 30 -55 30 l-55 0 0 40 0 40 70 0 70 0 0 30 0 30
-110 0 -110 0 0 -175z"/>
<path d="M3390 2455 l0 -175 115 0 115 0 0 30 0 30 -70 0 -70 0 0 45 0 45 56
0 c54 0 55 0 52 28 -3 25 -7 27 -55 30 l-53 3 0 40 0 39 70 0 70 0 0 30 0 30
-115 0 -115 0 0 -175z"/>
<path d="M3670 2455 l0 -175 83 0 c109 0 148 12 190 59 60 66 60 176 0 233
-45 43 -93 58 -188 58 l-85 0 0 -175z m200 90 c45 -41 45 -140 0 -180 -11 -10
-42 -20 -70 -23 l-50 -5 0 118 0 118 50 -5 c29 -3 59 -13 70 -23z"/>
</g>
</svg>
